<svg width="90" height="90" viewBox="0 0 90 90" fill="none" xmlns="http://www.w3.org/2000/svg">
<g filter="url(#filter0_d_63_555)">
<circle cx="45" cy="41" r="25" fill="#FF565B"/>
</g>
<path d="M47.5904 31.1C49.7583 31.1 50.7924 31.2997 51.8666 31.8742C52.8383 32.3938 53.6062 33.1618 54.1259 34.1334C54.7004 35.2076 54.9001 36.2418 54.9001 38.4097V43.5903C54.9001 45.7582 54.7004 46.7923 54.1259 47.8665C53.6062 48.8382 52.8383 49.6061 51.8666 50.1258C50.7924 50.7003 49.7583 50.9 47.5904 50.9H42.4098C40.2419 50.9 39.2078 50.7003 38.1335 50.1258C37.1619 49.6061 36.3939 48.8382 35.8743 47.8665C35.2998 46.7923 35.1001 45.7582 35.1001 43.5903V38.4097C35.1001 36.2418 35.2998 35.2076 35.8743 34.1334C36.3939 33.1618 37.1619 32.3938 38.1335 31.8742C39.2078 31.2997 40.2419 31.1 42.4098 31.1H47.5904ZM47.5904 32.9H42.4098C40.5136 32.9 39.7602 33.0455 38.9824 33.4614C38.3244 33.8133 37.8134 34.3243 37.4616 34.9823C37.0456 35.7601 36.9001 36.5135 36.9001 38.4097V43.5903C36.9001 45.4864 37.0456 46.2398 37.4616 47.0177C37.8134 47.6756 38.3244 48.1866 38.9824 48.5385C39.7602 48.9545 40.5136 49.1 42.4098 49.1H47.5904C49.4866 49.1 50.24 48.9545 51.0178 48.5385C51.6757 48.1866 52.1867 47.6756 52.5386 47.0177C52.9546 46.2398 53.1001 45.4864 53.1001 43.5903V38.4097C53.1001 36.5135 52.9546 35.7601 52.5386 34.9823C52.1867 34.3243 51.6757 33.8133 51.0178 33.4614C50.24 33.0455 49.4866 32.9 47.5904 32.9Z" fill="white"/>
<path fill-rule="evenodd" clip-rule="evenodd" d="M45.0001 36C45.4971 36 45.9001 36.4029 45.9001 36.9V40.1H49.1001C49.5971 40.1 50.0001 40.5029 50.0001 41C50.0001 41.497 49.5971 41.9 49.1001 41.9H45.9001V45.1C45.9001 45.597 45.4971 46 45.0001 46C44.503 46 44.1001 45.597 44.1001 45.1V41.9H40.9001C40.403 41.9 40.0001 41.497 40.0001 41C40.0001 40.5029 40.403 40.1 40.9001 40.1H44.1001V36.9C44.1001 36.4029 44.503 36 45.0001 36Z" fill="white"/>
<defs>
<filter id="filter0_d_63_555" x="0" y="0" width="90" height="90" filterUnits="userSpaceOnUse" color-interpolation-filters="sRGB">
<feFlood flood-opacity="0" result="BackgroundImageFix"/>
<feColorMatrix in="SourceAlpha" type="matrix" values="0 0 0 0 0 0 0 0 0 0 0 0 0 0 0 0 0 0 127 0" result="hardAlpha"/>
<feOffset dy="4"/>
<feGaussianBlur stdDeviation="10"/>
<feComposite in2="hardAlpha" operator="out"/>
<feColorMatrix type="matrix" values="0 0 0 0 0.466667 0 0 0 0 0.466667 0 0 0 0 0.466667 0 0 0 0.25 0"/>
<feBlend mode="normal" in2="BackgroundImageFix" result="effect1_dropShadow_63_555"/>
<feBlend mode="normal" in="SourceGraphic" in2="effect1_dropShadow_63_555" result="shape"/>
</filter>
</defs>
</svg>
