<svg width="20" height="20" viewBox="0 0 20 20" fill="none" xmlns="http://www.w3.org/2000/svg">
<path d="M10.0041 0.0999985C14.0194 0.0999985 16.9 3.37831 16.9 7.63158V9.23123C16.9 9.45993 17.0932 9.76304 17.6205 10.307C17.6881 10.3768 17.7518 10.4415 17.8909 10.5823C18.9721 11.679 19.4 12.3108 19.4 13.3272C19.4 13.7717 19.3481 14.1182 19.1323 14.5335C18.6761 15.411 17.7089 15.9 16.2631 15.9L14.3514 15.901C13.7221 18.2335 12.2209 19.5002 9.99998 19.5002C7.75537 19.5002 6.24589 18.2064 5.62878 15.8261L5.64798 15.9H3.73682C2.24886 15.9 1.27132 15.3977 0.834638 14.4894C0.643682 14.0922 0.599976 13.7698 0.599976 13.3272C0.599976 12.3108 1.02785 11.679 2.1091 10.5823C2.24817 10.4415 2.31184 10.3768 2.37946 10.307C2.90673 9.76304 3.09998 9.45993 3.09998 9.23123V7.63158C3.09998 3.37997 5.98769 0.0999985 10.0041 0.0999985ZM12.4659 15.9019H7.53401C7.98996 17.1485 8.77575 17.7002 9.99998 17.7002C11.2242 17.7002 12.01 17.1485 12.4659 15.9019ZM10.0041 1.9C7.03644 1.9 4.89998 4.32667 4.89998 7.63158V9.23123C4.89998 10.0838 4.51053 10.6946 3.67198 11.5598C3.59872 11.6354 3.52956 11.7056 3.39086 11.8461C2.64397 12.6036 2.39998 12.9639 2.39998 13.3272C2.39998 13.5193 2.41352 13.6192 2.4569 13.7095C2.5642 13.9326 2.88988 14.1 3.73682 14.1H16.2631C17.0832 14.1 17.4165 13.9315 17.5352 13.7032C17.5846 13.6081 17.6 13.5055 17.6 13.3272C17.6 12.9639 17.356 12.6036 16.6091 11.8461C16.4704 11.7056 16.4012 11.6354 16.328 11.5598C15.4894 10.6946 15.1 10.0838 15.1 9.23123V7.63158C15.1 4.32435 12.9697 1.9 10.0041 1.9Z" fill="#333333"/>
</svg>
