<svg width="16" height="16" viewBox="0 0 16 16" fill="none" xmlns="http://www.w3.org/2000/svg">
<path d="M12.0793 0.333313H3.92071C2.96081 0.333313 2.47143 0.427815 1.96209 0.700216C1.49188 0.951686 1.11837 1.32519 0.866903 1.7954C0.594503 2.30474 0.5 2.79412 0.5 3.75403V8.57927C0.5 9.53917 0.594503 10.0285 0.866903 10.5379C1.11837 11.0081 1.49188 11.3816 1.96209 11.6331L2.0795 11.6928C2.51034 11.9006 2.95389 11.9855 3.70733 11.9983L3.91667 12V13.8457C3.91667 14.2056 4.05775 14.5511 4.30962 14.8081L4.40681 14.8983C4.94243 15.3497 5.74361 15.328 6.25407 14.8278L9.13833 12H12.0793C13.0392 12 13.5286 11.9055 14.0379 11.6331C14.5081 11.3816 14.8816 11.0081 15.1331 10.5379C15.4055 10.0285 15.5 9.53917 15.5 8.57927V3.75403C15.5 2.79412 15.4055 2.30474 15.1331 1.7954C14.8816 1.32519 14.5081 0.951686 14.0379 0.700216C13.5286 0.427815 13.0392 0.333313 12.0793 0.333313ZM3.75972 1.83421L12.0793 1.83331C12.8127 1.83331 13.0682 1.88264 13.3305 2.02294C13.5393 2.13461 13.6987 2.29399 13.8104 2.5028C13.9507 2.76513 14 3.02057 14 3.75403V8.57927L13.9963 8.88561C13.9827 9.39149 13.9291 9.60852 13.8104 9.83049C13.6987 10.0393 13.5393 10.1987 13.3305 10.3104C13.0682 10.4507 12.8127 10.5 12.0793 10.5H8.83333L8.73603 10.5063C8.57556 10.5273 8.42521 10.5998 8.30839 10.7143L5.41667 13.5475V11.25C5.41667 10.8358 5.08088 10.5 4.66667 10.5H3.92071L3.61437 10.4963C3.10849 10.4826 2.89146 10.4291 2.66948 10.3104C2.46068 10.1987 2.30129 10.0393 2.18962 9.83049C2.04933 9.56816 2 9.31273 2 8.57927V3.75403L2.00365 3.44768C2.01733 2.94181 2.07091 2.72477 2.18962 2.5028C2.30129 2.29399 2.46068 2.13461 2.66948 2.02294C2.91164 1.89343 3.14791 1.84144 3.75972 1.83421Z" fill="url(#paint0_linear_191_44)"/>
<defs>
<linearGradient id="paint0_linear_191_44" x1="0.5" y1="0.333313" x2="15.387" y2="15.3329" gradientUnits="userSpaceOnUse">
<stop stop-color="#FC6B6F"/>
<stop offset="1" stop-color="#D938BE"/>
</linearGradient>
</defs>
</svg>
