<svg width="14" height="14" viewBox="0 0 14 14" fill="none" xmlns="http://www.w3.org/2000/svg">
<path d="M11.5301 0.166656C12.273 0.166656 12.5424 0.244011 12.814 0.389267C13.0857 0.534523 13.2988 0.74768 13.4441 1.01929C13.5893 1.29089 13.6667 1.5603 13.6667 2.30323V8.03009C13.6667 8.77302 13.5893 9.04242 13.4441 9.31403C13.2988 9.58563 13.0857 9.79879 12.814 9.94405C12.5424 10.0893 12.273 10.1667 11.5301 10.1667H7.83168L4.73369 13.266C4.48964 13.5101 4.09392 13.5102 3.8498 13.2661C3.73255 13.1489 3.66668 12.9899 3.66668 12.8241V10.1667H2.46991C1.72698 10.1667 1.45758 10.0893 1.18597 9.94405C0.914367 9.79879 0.70121 9.58563 0.555954 9.31403C0.410698 9.04242 0.333344 8.77302 0.333344 8.03009V2.30323C0.333344 1.5603 0.410698 1.29089 0.555954 1.01929C0.70121 0.74768 0.914367 0.534523 1.18597 0.389267C1.45758 0.244011 1.72698 0.166656 2.46991 0.166656H11.5301Z" fill="url(#paint0_linear_191_111)"/>
<defs>
<linearGradient id="paint0_linear_191_111" x1="0.333344" y1="0.166656" x2="13.6157" y2="13.4999" gradientUnits="userSpaceOnUse">
<stop stop-color="#FC6B6F"/>
<stop offset="1" stop-color="#D938BE"/>
</linearGradient>
</defs>
</svg>
