<svg width="18" height="20" viewBox="0 0 18 20" fill="none" xmlns="http://www.w3.org/2000/svg">
<path fill-rule="evenodd" clip-rule="evenodd" d="M8.78037 1.19397C8.88852 0.653468 8.53782 0.127674 7.99704 0.0195738C7.45627 -0.0885262 6.93021 0.262003 6.82206 0.802503L5.78203 6H3C2.44772 6 2 6.44772 2 7C2 7.55228 2.44772 8 3 8H5.38183L4.58143 12H1.5C0.947716 12 0.5 12.4477 0.5 13C0.5 13.5523 0.947716 14 1.5 14H4.18123L3.21954 18.806C3.11138 19.3465 3.46209 19.8723 4.00286 19.9804C4.54363 20.0885 5.06969 19.738 5.17785 19.1975L6.21787 14H10.1812L9.21953 18.806C9.11138 19.3465 9.46209 19.8723 10.0029 19.9804C10.5436 20.0885 11.0697 19.738 11.1778 19.1975L12.2179 14H15C15.5523 14 16 13.5523 16 13C16 12.4477 15.5523 12 15 12H12.6181L13.4185 8H16.5C17.0523 8 17.5 7.55228 17.5 7C17.5 6.44772 17.0523 6 16.5 6H13.8187L14.7804 1.19397C14.8885 0.653468 14.5378 0.127674 13.997 0.0195738C13.4563 -0.0885262 12.9302 0.262003 12.8221 0.802503L11.782 6H7.81868L8.78037 1.19397ZM11.3818 8H7.41847L6.61807 12H10.5814L11.3818 8Z" fill="#6F767E"/>
</svg>
