<svg width="18" height="15" viewBox="0 0 18 15" fill="none" xmlns="http://www.w3.org/2000/svg">
<path d="M12.3265 0.338332C11.1171 0.391515 10.0324 0.869457 9.09249 1.74961L8.99499 1.84418L8.89354 1.74585C7.88545 0.81339 6.72883 0.333344 5.4453 0.333344C2.81429 0.333344 0.666656 2.4669 0.666656 5.0977C0.666656 7.67053 1.6061 8.89069 5.81868 12.2192L8.0587 13.9673C8.61211 14.3986 9.38787 14.3986 9.94128 13.9673L11.9114 12.4318L12.6891 11.8154C16.4705 8.78666 17.3333 7.56333 17.3333 5.0977C17.3333 2.4669 15.1857 0.333344 12.5547 0.333344L12.3265 0.338332ZM12.5547 1.83334C14.3595 1.83334 15.8333 3.29754 15.8333 5.0977L15.8292 5.34237C15.766 7.13954 14.9443 8.12671 11.2384 11.0526L9.0192 12.7842C9.00791 12.793 8.99207 12.793 8.98078 12.7842L7.01065 11.2487L6.28248 10.6722C2.83064 7.91475 2.16666 6.97231 2.16666 5.0977C2.16666 3.29754 3.64051 1.83334 5.4453 1.83334C6.55607 1.83334 7.53397 2.348 8.4198 3.42938C8.72185 3.79811 9.28672 3.79523 9.58499 3.42344C10.4491 2.34638 11.4239 1.83334 12.5547 1.83334Z" fill="url(#paint0_linear_191_6)"/>
<defs>
<linearGradient id="paint0_linear_191_6" x1="0.666656" y1="0.333344" x2="14.4073" y2="16.7412" gradientUnits="userSpaceOnUse">
<stop stop-color="#FC6B6F"/>
<stop offset="1" stop-color="#D938BE"/>
</linearGradient>
</defs>
</svg>
