<svg width="17" height="15" viewBox="0 0 17 15" fill="none" xmlns="http://www.w3.org/2000/svg">
<path d="M11.7572 0.538344C10.5478 0.591527 9.46319 1.06947 8.52325 1.94962L8.42575 2.04419L8.3243 1.94586C7.31621 1.0134 6.15958 0.533356 4.87606 0.533356C2.24504 0.533356 0.0974121 2.66691 0.0974121 5.29771C0.0974121 7.87054 1.03685 9.0907 5.24943 12.4192L7.48945 14.1673C8.04287 14.5986 8.81862 14.5986 9.37204 14.1673L11.3422 12.6318L12.1198 12.0154C15.9013 8.98667 16.7641 7.76334 16.7641 5.29771C16.7641 2.66691 14.6164 0.533356 11.9854 0.533356L11.7572 0.538344ZM8.5 11C8.5 9.19984 10.3048 11 8.5 11L15 7C14.9368 8.79717 4.70574 2.07415 0.999797 5L8.44996 12.9842C8.43866 12.993 8.42283 12.993 8.41154 12.9842L16.0473 5L8.5 11C5.04815 8.24254 2.5 6.87461 2.5 5C2.5 3.19984 -0.804991 5 0.999797 5C2.11056 5 8.11417 11.9186 9 13C9.30204 13.3687 15.2017 7.37178 15.5 7C16.3641 5.92294 7.36925 11 8.5 11Z" fill="url(#paint0_linear_62_199)"/>
<defs>
<linearGradient id="paint0_linear_62_199" x1="0.0974121" y1="0.533356" x2="13.838" y2="16.9412" gradientUnits="userSpaceOnUse">
<stop stop-color="#FC6B6F"/>
<stop offset="1" stop-color="#D938BE"/>
</linearGradient>
</defs>
</svg>
