<svg width="27" height="26" viewBox="0 0 27 26" fill="none" xmlns="http://www.w3.org/2000/svg">
<path d="M18.9167 2.16667C21.3099 2.16667 23.25 4.10677 23.25 6.50001V19.5C23.25 21.8932 21.3099 23.8333 18.9167 23.8333H8.08333C5.6901 23.8333 3.75 21.8932 3.75 19.5V6.50001C3.75 4.10677 5.6901 2.16667 8.08333 2.16667H18.9167ZM18.9167 4.33334H8.08333C6.88672 4.33334 5.91667 5.30339 5.91667 6.50001V19.5C5.91667 20.6966 6.88672 21.6667 8.08333 21.6667H18.9167C20.1133 21.6667 21.0833 20.6966 21.0833 19.5V6.50001C21.0833 5.30339 20.1133 4.33334 18.9167 4.33334ZM17.8333 10.8333C18.4316 10.8333 18.9167 11.3184 18.9167 11.9167V18.4167C18.9167 19.015 18.4316 19.5 17.8333 19.5H9.16667C8.56836 19.5 8.08333 19.015 8.08333 18.4167V11.9167C8.08333 11.3184 8.56836 10.8333 9.16667 10.8333H17.8333ZM13.5 6.50001C14.0983 6.50001 14.5833 6.98503 14.5833 7.58334C14.5833 8.18165 14.0983 8.66667 13.5 8.66667H9.16667C8.56836 8.66667 8.08333 8.18165 8.08333 7.58334C8.08333 6.98503 8.56836 6.50001 9.16667 6.50001H13.5Z" fill="#010101"/>
</svg>
