<svg width="30" height="30" viewBox="0 0 30 30" fill="none" xmlns="http://www.w3.org/2000/svg">
<circle cx="15" cy="15" r="15" fill="url(#paint0_linear_104_200)"/>
<path fill-rule="evenodd" clip-rule="evenodd" d="M16.8827 11.2316L9.35174 18.7626C9.17983 18.9345 9.08325 19.1676 9.08325 19.4108L9.08325 20.8333C9.08325 20.8794 9.12056 20.9167 9.16659 20.9167H10.5892C10.8323 20.9167 11.0654 20.8201 11.2374 20.6482L18.7683 13.1173L16.8827 11.2316ZM17.9433 10.171L19.8289 12.0566L20.7717 11.1138C20.967 10.9185 20.967 10.6019 20.7717 10.4067L19.5932 9.22817C19.398 9.03291 19.0814 9.03291 18.8861 9.22817L17.9433 10.171ZM8.29107 17.7019L17.8255 8.16751C18.6065 7.38646 19.8728 7.38646 20.6539 8.16751L21.8324 9.34602C22.6134 10.1271 22.6134 11.3934 21.8324 12.1745L12.298 21.7089C11.8448 22.1621 11.2301 22.4167 10.5892 22.4167L9.16659 22.4167C8.29214 22.4167 7.58325 21.7078 7.58325 20.8333L7.58325 19.4108C7.58325 18.7698 7.83786 18.1551 8.29107 17.7019Z" fill="white"/>
<defs>
<linearGradient id="paint0_linear_104_200" x1="0" y1="0" x2="30" y2="30" gradientUnits="userSpaceOnUse">
<stop stop-color="#FC6B6F"/>
<stop offset="1" stop-color="#D938BE"/>
</linearGradient>
</defs>
</svg>
