<svg width="20" height="20" viewBox="0 0 20 20" fill="none" xmlns="http://www.w3.org/2000/svg">
<path fill-rule="evenodd" clip-rule="evenodd" d="M9.99988 6.8C9.06099 6.8 8.29988 7.56112 8.29988 8.5C8.29988 9.43888 9.06099 10.2 9.99988 10.2C10.9388 10.2 11.6999 9.43888 11.6999 8.5C11.6999 7.56112 10.9388 6.8 9.99988 6.8ZM6.49988 8.5C6.49988 6.567 8.06688 5 9.99988 5C11.9329 5 13.4999 6.567 13.4999 8.5C13.4999 10.433 11.9329 12 9.99988 12C8.06688 12 6.49988 10.433 6.49988 8.5Z" fill="#6F767E"/>
<path fill-rule="evenodd" clip-rule="evenodd" d="M9.99998 0.0999756C7.26641 0.0999756 4.79018 1.20906 2.99962 2.99962C1.20906 4.79018 0.0999756 7.26641 0.0999756 9.99998C0.0999756 12.7335 1.20906 15.2098 2.99962 17.0003C4.79018 18.7909 7.26641 19.9 9.99998 19.9C12.7335 19.9 15.2098 18.7909 17.0003 17.0003C18.7909 15.2098 19.9 12.7335 19.9 9.99998C19.9 7.26641 18.7909 4.79018 17.0003 2.99962C15.2098 1.20906 12.7335 0.0999756 9.99998 0.0999756ZM14.3824 16.8134C13.1751 15.8648 11.6541 15.3 9.99997 15.3C8.34582 15.3 6.82482 15.8648 5.61756 16.8134C6.88098 17.6279 8.3849 18.1 9.99998 18.1C11.615 18.1 13.119 17.6279 14.3824 16.8134ZM4.27241 4.27241C5.73921 2.80561 7.76297 1.89998 9.99998 1.89998C12.237 1.89998 14.2607 2.80561 15.7275 4.27241C17.1943 5.73921 18.1 7.76297 18.1 9.99998C18.1 12.1986 17.2252 14.1912 15.8026 15.6515C14.2451 14.3113 12.2166 13.5 9.99997 13.5C7.78338 13.5 5.75489 14.3113 4.19736 15.6515C2.77478 14.1912 1.89997 12.1986 1.89997 9.99998C1.89997 7.76297 2.80561 5.73921 4.27241 4.27241ZM6.49988 8.5C6.49988 6.567 8.06688 5 9.99988 5C11.9329 5 13.4999 6.567 13.4999 8.5C13.4999 10.433 11.9329 12 9.99988 12C8.06688 12 6.49988 10.433 6.49988 8.5ZM9.99988 6.8C9.06099 6.8 8.29988 7.56112 8.29988 8.5C8.29988 9.43888 9.06099 10.2 9.99988 10.2C10.9388 10.2 11.6999 9.43888 11.6999 8.5C11.6999 7.56112 10.9388 6.8 9.99988 6.8Z" fill="#6F767E"/>
</svg>
