<svg width="18" height="18" viewBox="0 0 18 18" fill="none" xmlns="http://www.w3.org/2000/svg">
<path d="M0.75 6.84143C0.75 5.03483 0.916418 4.17306 1.39517 3.27787C1.82821 2.46816 2.46816 1.82821 3.27787 1.39517C4.17306 0.916418 5.03484 0.75 6.84143 0.75H11.1586C12.9652 0.75 13.8269 0.916418 14.7221 1.39517C15.5318 1.82821 16.1718 2.46816 16.6048 3.27787C17.0836 4.17306 17.25 5.03483 17.25 6.84143V11.1586C17.25 12.9652 17.0836 13.8269 16.6048 14.7221C16.1718 15.5318 15.5318 16.1718 14.7221 16.6048C13.8269 17.0836 12.9652 17.25 11.1586 17.25H6.84143C5.03484 17.25 4.17306 17.0836 3.27787 16.6048C2.46816 16.1718 1.82821 15.5318 1.39517 14.7221C0.916418 13.8269 0.75 12.9652 0.75 11.1586L0.75 6.84143ZM2.25 6.84143L2.25 11.1586C2.25 12.7387 2.37124 13.3666 2.71789 14.0147C3.01113 14.563 3.43696 14.9889 3.98527 15.2821C4.63344 15.6288 5.26128 15.75 6.84143 15.75H11.1586C12.7387 15.75 13.3666 15.6288 14.0147 15.2821C14.563 14.9889 14.9889 14.563 15.2821 14.0147C15.6288 13.3666 15.75 12.7387 15.75 11.1586V6.84143C15.75 5.26128 15.6288 4.63344 15.2821 3.98527C14.9889 3.43696 14.563 3.01113 14.0147 2.71789C13.3666 2.37124 12.7387 2.25 11.1586 2.25H6.84143C5.26128 2.25 4.63344 2.37124 3.98527 2.71789C3.43696 3.01113 3.01113 3.43696 2.71789 3.98527C2.37124 4.63344 2.25 5.26128 2.25 6.84143ZM5.85111 8.74259C5.57906 8.43023 5.61173 7.95649 5.92408 7.68444L8.50741 5.43444C8.78977 5.18852 9.21023 5.18852 9.49259 5.43444L12.0759 7.68444C12.3883 7.95649 12.4209 8.43023 12.1489 8.74259C11.8768 9.05494 11.4031 9.08761 11.0907 8.81556L9.75 7.64833V12C9.75 12.3824 9.46389 12.6979 9.09408 12.7442L9 12.75C8.58579 12.75 8.25 12.4142 8.25 12V7.64833L6.90925 8.81556C6.62293 9.06494 6.20099 9.05826 5.92311 8.81483L5.85111 8.74259Z" fill="url(#paint0_linear_191_31)"/>
<defs>
<linearGradient id="paint0_linear_191_31" x1="0.75" y1="17.25" x2="17.25" y2="0.75" gradientUnits="userSpaceOnUse">
<stop stop-color="#FC6B6F"/>
<stop offset="1" stop-color="#D938BE"/>
</linearGradient>
</defs>
</svg>
